<?xml version="1.0" encoding="utf-8"?>
<!-- Generator: Adobe Illustrator 21.0.0, SVG Export Plug-In . SVG Version: 6.00 Build 0)  -->
<svg version="1.1" id="cardBack" xmlns="http://www.w3.org/2000/svg" xmlns:xlink="http://www.w3.org/1999/xlink" x="0px" y="0px"
	 viewBox="0 0 167.1 242.7" style="enable-background:new 0 0 167.1 242.7;" xml:space="preserve">
<style type="text/css">
	.st0{fill:#FFB3B3;stroke:#000000;stroke-width:0.5;}
	.st1{fill:#EF0F0F;stroke:#FFFFFF;stroke-width:0.1407;}
</style>
<path id="path5_1_" class="st0" d="M166.8,235.5c0,3.8-3.1,6.9-6.9,6.9H7.1c-3.8,0-6.9-3.1-6.9-6.9V7.1c0-3.8,3.1-6.9,6.9-6.9H160
	c3.8,0,6.9,3.1,6.9,6.9V235.5z"/>
<g>
	<g>
		<polygon class="st1" points="11.6,8.9 6.4,16.4 1.3,8.9 6.4,1.4 		"/>
		<polygon class="st1" points="21.9,8.9 16.7,16.4 11.6,8.9 16.7,1.4 		"/>
		<polygon class="st1" points="32.2,8.9 27,16.4 21.9,8.9 27,1.4 		"/>
		<polygon class="st1" points="42.5,8.9 37.3,16.4 32.2,8.9 37.3,1.4 		"/>
		<polygon class="st1" points="11.7,23.9 6.5,31.4 1.4,23.9 6.5,16.4 		"/>
		<polygon class="st1" points="22,23.9 16.8,31.4 11.7,23.9 16.8,16.4 		"/>
		<polygon class="st1" points="32.3,23.9 27.1,31.4 22,23.9 27.1,16.4 		"/>
		<polygon class="st1" points="42.6,23.9 37.4,31.4 32.3,23.9 37.4,16.4 		"/>
		<polygon class="st1" points="11.7,38.9 6.5,46.4 1.4,38.9 6.5,31.4 		"/>
		<polygon class="st1" points="22,38.9 16.8,46.4 11.7,38.9 16.8,31.4 		"/>
		<polygon class="st1" points="32.3,38.9 27.1,46.4 22,38.9 27.1,31.4 		"/>
		<polygon class="st1" points="42.6,38.9 37.4,46.4 32.3,38.9 37.4,31.4 		"/>
		<polygon class="st1" points="11.6,53.9 6.4,61.4 1.3,53.9 6.4,46.4 		"/>
		<polygon class="st1" points="21.9,53.9 16.7,61.4 11.6,53.9 16.7,46.4 		"/>
		<polygon class="st1" points="32.2,53.9 27,61.4 21.9,53.9 27,46.4 		"/>
		<polygon class="st1" points="42.5,53.9 37.3,61.4 32.2,53.9 37.3,46.4 		"/>
	</g>
	<g>
		<polygon class="st1" points="52.8,8.9 47.6,16.4 42.5,8.9 47.6,1.4 		"/>
		<polygon class="st1" points="63.1,8.9 58,16.4 52.8,8.9 57.9,1.4 		"/>
		<polygon class="st1" points="73.4,8.9 68.3,16.4 63.1,8.9 68.3,1.4 		"/>
		<polygon class="st1" points="83.7,8.9 78.6,16.4 73.4,8.9 78.6,1.4 		"/>
		<polygon class="st1" points="52.9,23.9 47.8,31.4 42.6,23.9 47.7,16.4 		"/>
		<polygon class="st1" points="63.2,23.9 58.1,31.4 52.9,23.9 58.1,16.4 		"/>
		<polygon class="st1" points="73.5,23.9 68.4,31.4 63.2,23.9 68.4,16.4 		"/>
		<polygon class="st1" points="83.8,23.9 78.7,31.4 73.5,23.9 78.7,16.4 		"/>
		<polygon class="st1" points="52.9,38.9 47.8,46.4 42.6,38.9 47.8,31.4 		"/>
		<polygon class="st1" points="63.2,38.9 58.1,46.4 52.9,38.9 58.1,31.4 		"/>
		<polygon class="st1" points="73.5,38.9 68.4,46.4 63.2,38.9 68.4,31.4 		"/>
		<polygon class="st1" points="83.8,38.9 78.7,46.4 73.5,38.9 78.7,31.4 		"/>
		<polygon class="st1" points="52.8,53.9 47.7,61.4 42.5,53.9 47.7,46.4 		"/>
		<polygon class="st1" points="63.1,53.9 58,61.4 52.8,53.9 58,46.4 		"/>
		<polygon class="st1" points="73.4,53.9 68.3,61.4 63.1,53.9 68.3,46.4 		"/>
		<polygon class="st1" points="83.7,53.9 78.6,61.4 73.4,53.9 78.6,46.4 		"/>
	</g>
	<g>
		<polygon class="st1" points="94.1,8.9 89,16.4 83.8,8.9 89,1.4 		"/>
		<polygon class="st1" points="104.5,8.9 99.3,16.4 94.1,8.9 99.3,1.4 		"/>
		<polygon class="st1" points="114.8,8.9 109.6,16.4 104.5,8.9 109.6,1.4 		"/>
		<polygon class="st1" points="125.1,8.9 119.9,16.4 114.8,8.9 119.9,1.4 		"/>
		<polygon class="st1" points="94.3,23.9 89.1,31.4 83.9,23.9 89.1,16.4 		"/>
		<polygon class="st1" points="104.6,23.9 99.4,31.4 94.3,23.9 99.4,16.4 		"/>
		<polygon class="st1" points="114.9,23.9 109.7,31.4 104.6,23.9 109.7,16.4 		"/>
		<polygon class="st1" points="125.2,23.9 120,31.4 114.9,23.9 120,16.4 		"/>
		<polygon class="st1" points="94.3,38.9 89.1,46.4 83.9,38.9 89.1,31.4 		"/>
		<polygon class="st1" points="104.6,38.9 99.4,46.4 94.3,38.9 99.4,31.4 		"/>
		<polygon class="st1" points="114.9,38.9 109.7,46.4 104.6,38.9 109.7,31.4 		"/>
		<polygon class="st1" points="125.2,38.9 120,46.4 114.9,38.9 120,31.4 		"/>
		<polygon class="st1" points="94.2,53.9 89,61.4 83.8,53.9 89,46.4 		"/>
		<polygon class="st1" points="104.5,53.9 99.3,61.4 94.2,53.9 99.3,46.4 		"/>
		<polygon class="st1" points="114.8,53.9 109.6,61.4 104.5,53.9 109.6,46.4 		"/>
		<polygon class="st1" points="125.1,53.9 119.9,61.5 114.8,53.9 119.9,46.4 		"/>
	</g>
	<g>
		<polygon class="st1" points="135.4,8.9 130.2,16.4 125.1,8.9 130.2,1.4 		"/>
		<polygon class="st1" points="145.7,8.9 140.5,16.4 135.4,8.9 140.5,1.4 		"/>
		<polygon class="st1" points="156,8.9 150.8,16.4 145.7,8.9 150.8,1.4 		"/>
		<polygon class="st1" points="166.3,8.9 161.1,16.4 156,8.9 161.1,1.4 		"/>
		<polygon class="st1" points="135.5,23.9 130.3,31.4 125.2,23.9 130.3,16.4 		"/>
		<polygon class="st1" points="145.8,23.9 140.6,31.4 135.5,23.9 140.6,16.4 		"/>
		<polygon class="st1" points="156.1,23.9 150.9,31.4 145.8,23.9 150.9,16.4 		"/>
		<polygon class="st1" points="166.4,23.9 161.3,31.4 156.1,23.9 161.3,16.4 		"/>
		<polygon class="st1" points="135.5,38.9 130.3,46.4 125.2,38.9 130.3,31.4 		"/>
		<polygon class="st1" points="145.8,38.9 140.6,46.4 135.5,38.9 140.6,31.4 		"/>
		<polygon class="st1" points="156.1,38.9 151,46.4 145.8,38.9 150.9,31.4 		"/>
		<polygon class="st1" points="166.4,38.9 161.3,46.4 156.1,38.9 161.3,31.4 		"/>
		<polygon class="st1" points="135.4,53.9 130.2,61.4 125.1,53.9 130.2,46.4 		"/>
		<polygon class="st1" points="145.7,53.9 140.5,61.4 135.4,53.9 140.5,46.4 		"/>
		<polygon class="st1" points="156,53.9 150.9,61.5 145.7,53.9 150.8,46.4 		"/>
		<polygon class="st1" points="166.3,54 161.2,61.5 156,53.9 161.2,46.4 		"/>
	</g>
	<g>
		<polygon class="st1" points="11.7,68.9 6.5,76.4 1.4,68.9 6.5,61.4 		"/>
		<polygon class="st1" points="22,68.9 16.8,76.4 11.7,68.9 16.8,61.4 		"/>
		<polygon class="st1" points="32.3,68.9 27.1,76.5 22,68.9 27.1,61.4 		"/>
		<polygon class="st1" points="42.6,69 37.4,76.5 32.3,68.9 37.4,61.4 		"/>
		<polygon class="st1" points="11.8,84 6.6,91.5 1.5,84 6.6,76.4 		"/>
		<polygon class="st1" points="22.1,84 16.9,91.5 11.8,84 16.9,76.4 		"/>
		<polygon class="st1" points="32.4,84 27.3,91.5 22.1,84 27.2,76.5 		"/>
		<polygon class="st1" points="42.7,84 37.6,91.5 32.4,84 37.6,76.5 		"/>
		<polygon class="st1" points="11.8,99 6.6,106.5 1.5,99 6.6,91.5 		"/>
		<polygon class="st1" points="22.1,99 16.9,106.5 11.8,99 16.9,91.5 		"/>
		<polygon class="st1" points="32.4,99 27.3,106.5 22.1,99 27.3,91.5 		"/>
		<polygon class="st1" points="42.7,99 37.6,106.5 32.4,99 37.6,91.5 		"/>
		<polygon class="st1" points="11.7,114 6.5,121.5 1.4,114 6.5,106.5 		"/>
		<polygon class="st1" points="22,114 16.8,121.5 11.7,114 16.8,106.5 		"/>
		<polygon class="st1" points="32.3,114 27.2,121.5 22,114 27.2,106.5 		"/>
		<polygon class="st1" points="42.6,114 37.5,121.5 32.3,114 37.5,106.5 		"/>
	</g>
	<g>
		<polygon class="st1" points="52.9,68.9 47.8,76.5 42.6,68.9 47.8,61.4 		"/>
		<polygon class="st1" points="63.2,68.9 58.1,76.5 52.9,68.9 58.1,61.4 		"/>
		<polygon class="st1" points="73.5,69 68.4,76.5 63.2,68.9 68.4,61.4 		"/>
		<polygon class="st1" points="83.8,69 78.7,76.5 73.5,69 78.7,61.4 		"/>
		<polygon class="st1" points="53,84 47.9,91.5 42.7,84 47.9,76.5 		"/>
		<polygon class="st1" points="63.3,84 58.2,91.5 53,84 58.2,76.5 		"/>
		<polygon class="st1" points="73.6,84 68.5,91.5 63.3,84 68.5,76.5 		"/>
		<polygon class="st1" points="83.9,84 78.8,91.5 73.6,84 78.8,76.5 		"/>
		<polygon class="st1" points="53,99 47.9,106.5 42.7,99 47.9,91.5 		"/>
		<polygon class="st1" points="63.3,99 58.2,106.5 53,99 58.2,91.5 		"/>
		<polygon class="st1" points="73.6,99 68.5,106.5 63.3,99 68.5,91.5 		"/>
		<polygon class="st1" points="83.9,99 78.8,106.5 73.6,99 78.8,91.5 		"/>
		<polygon class="st1" points="52.9,114 47.8,121.5 42.6,114 47.8,106.5 		"/>
		<polygon class="st1" points="63.2,114 58.1,121.5 52.9,114 58.1,106.5 		"/>
		<polygon class="st1" points="73.5,114 68.4,121.5 63.2,114 68.4,106.5 		"/>
		<polygon class="st1" points="83.8,114 78.7,121.5 73.5,114 78.7,106.5 		"/>
	</g>
	<g>
		<polygon class="st1" points="94.3,68.9 89.1,76.5 83.9,68.9 89.1,61.4 		"/>
		<polygon class="st1" points="104.6,69 99.4,76.5 94.3,68.9 99.4,61.4 		"/>
		<polygon class="st1" points="114.9,69 109.7,76.5 104.6,69 109.7,61.4 		"/>
		<polygon class="st1" points="125.2,69 120,76.5 114.9,69 120,61.5 		"/>
		<polygon class="st1" points="94.4,84 89.2,91.5 84.1,84 89.2,76.5 		"/>
		<polygon class="st1" points="104.7,84 99.5,91.5 94.4,84 99.5,76.5 		"/>
		<polygon class="st1" points="115,84 109.8,91.5 104.7,84 109.8,76.5 		"/>
		<polygon class="st1" points="125.3,84 120.1,91.5 115,84 120.1,76.5 		"/>
		<polygon class="st1" points="94.4,99 89.2,106.5 84.1,99 89.2,91.5 		"/>
		<polygon class="st1" points="104.7,99 99.5,106.5 94.4,99 99.5,91.5 		"/>
		<polygon class="st1" points="115,99 109.8,106.5 104.7,99 109.8,91.5 		"/>
		<polygon class="st1" points="125.3,99 120.1,106.5 115,99 120.1,91.5 		"/>
		<polygon class="st1" points="94.3,114 89.1,121.5 84,114 89.1,106.5 		"/>
		<polygon class="st1" points="104.6,114 99.4,121.5 94.3,114 99.4,106.5 		"/>
		<polygon class="st1" points="114.9,114 109.7,121.5 104.6,114 109.7,106.5 		"/>
		<polygon class="st1" points="125.2,114 120,121.5 114.9,114 120,106.5 		"/>
	</g>
	<g>
		<polygon class="st1" points="135.5,69 130.3,76.5 125.2,69 130.3,61.4 		"/>
		<polygon class="st1" points="145.8,69 140.6,76.5 135.5,69 140.6,61.4 		"/>
		<polygon class="st1" points="156.1,69 151,76.5 145.8,69 150.9,61.5 		"/>
		<polygon class="st1" points="166.4,69 161.3,76.5 156.1,69 161.3,61.5 		"/>
		<polygon class="st1" points="135.6,84 130.4,91.5 125.3,84 130.4,76.5 		"/>
		<polygon class="st1" points="145.9,84 140.8,91.5 135.6,84 140.8,76.5 		"/>
		<polygon class="st1" points="156.2,84 151.1,91.5 145.9,84 151.1,76.5 		"/>
		<polygon class="st1" points="166.5,84 161.4,91.5 156.2,84 161.4,76.5 		"/>
		<polygon class="st1" points="135.6,99 130.5,106.5 125.3,99 130.4,91.5 		"/>
		<polygon class="st1" points="145.9,99 140.8,106.5 135.6,99 140.8,91.5 		"/>
		<polygon class="st1" points="156.2,99 151.1,106.5 145.9,99 151.1,91.5 		"/>
		<polygon class="st1" points="166.5,99 161.4,106.5 156.2,99 161.4,91.5 		"/>
		<polygon class="st1" points="135.5,114 130.4,121.5 125.2,114 130.3,106.5 		"/>
		<polygon class="st1" points="145.8,114 140.7,121.5 135.5,114 140.7,106.5 		"/>
		<polygon class="st1" points="156.1,114 151,121.5 145.8,114 151,106.5 		"/>
		<polygon class="st1" points="166.4,114 161.3,121.5 156.1,114 161.3,106.5 		"/>
	</g>
	<g>
		<polygon class="st1" points="11.8,129 6.6,136.5 1.5,129 6.6,121.5 		"/>
		<polygon class="st1" points="22.1,129 16.9,136.5 11.8,129 16.9,121.5 		"/>
		<polygon class="st1" points="32.4,129 27.3,136.5 22.1,129 27.3,121.5 		"/>
		<polygon class="st1" points="42.7,129 37.6,136.5 32.4,129 37.6,121.5 		"/>
		<polygon class="st1" points="11.9,144 6.8,151.5 1.6,144 6.7,136.5 		"/>
		<polygon class="st1" points="22.2,144 17.1,151.5 11.9,144 17.1,136.5 		"/>
		<polygon class="st1" points="32.5,144 27.4,151.5 22.2,144 27.4,136.5 		"/>
		<polygon class="st1" points="42.8,144 37.7,151.5 32.5,144 37.7,136.5 		"/>
		<polygon class="st1" points="11.9,159 6.8,166.5 1.6,159 6.8,151.5 		"/>
		<polygon class="st1" points="22.2,159 17.1,166.5 11.9,159 17.1,151.5 		"/>
		<polygon class="st1" points="32.5,159 27.4,166.5 22.2,159 27.4,151.5 		"/>
		<polygon class="st1" points="42.8,159 37.7,166.5 32.5,159 37.7,151.5 		"/>
		<polygon class="st1" points="11.8,174 6.7,181.5 1.5,174 6.6,166.5 		"/>
		<polygon class="st1" points="22.1,174 17,181.5 11.8,174 17,166.5 		"/>
		<polygon class="st1" points="32.4,174 27.3,181.6 22.1,174 27.3,166.5 		"/>
		<polygon class="st1" points="42.7,174 37.6,181.6 32.4,174 37.6,166.5 		"/>
	</g>
	<g>
		<polygon class="st1" points="53,129 47.9,136.5 42.7,129 47.9,121.5 		"/>
		<polygon class="st1" points="63.3,129 58.2,136.5 53,129 58.2,121.5 		"/>
		<polygon class="st1" points="73.6,129 68.5,136.5 63.3,129 68.5,121.5 		"/>
		<polygon class="st1" points="83.9,129 78.8,136.5 73.6,129 78.8,121.5 		"/>
		<polygon class="st1" points="53.1,144 48,151.5 42.8,144 48,136.5 		"/>
		<polygon class="st1" points="63.4,144 58.3,151.5 53.1,144 58.3,136.5 		"/>
		<polygon class="st1" points="73.8,144 68.6,151.5 63.4,144 68.6,136.5 		"/>
		<polygon class="st1" points="84.1,144 78.9,151.5 73.8,144 78.9,136.5 		"/>
		<polygon class="st1" points="53.1,159 48,166.5 42.8,159 48,151.5 		"/>
		<polygon class="st1" points="63.4,159 58.3,166.5 53.1,159 58.3,151.5 		"/>
		<polygon class="st1" points="73.8,159 68.6,166.5 63.4,159 68.6,151.5 		"/>
		<polygon class="st1" points="84.1,159 78.9,166.5 73.8,159 78.9,151.5 		"/>
		<polygon class="st1" points="53,174 47.9,181.5 42.7,174 47.9,166.5 		"/>
		<polygon class="st1" points="63.3,174 58.2,181.6 53,174 58.2,166.5 		"/>
		<polygon class="st1" points="73.7,174.1 68.5,181.6 63.3,174 68.5,166.5 		"/>
		<polygon class="st1" points="84,174.1 78.8,181.6 73.7,174.1 78.8,166.5 		"/>
	</g>
	<g>
		<polygon class="st1" points="94.4,129 89.2,136.5 84.1,129 89.2,121.5 		"/>
		<polygon class="st1" points="104.7,129 99.5,136.5 94.4,129 99.5,121.5 		"/>
		<polygon class="st1" points="115,129 109.8,136.5 104.7,129 109.8,121.5 		"/>
		<polygon class="st1" points="125.3,129 120.1,136.5 115,129 120.1,121.5 		"/>
		<polygon class="st1" points="94.5,144 89.3,151.5 84.2,144 89.3,136.5 		"/>
		<polygon class="st1" points="104.8,144 99.6,151.5 94.5,144 99.6,136.5 		"/>
		<polygon class="st1" points="115.1,144 109.9,151.5 104.8,144 109.9,136.5 		"/>
		<polygon class="st1" points="125.4,144 120.3,151.5 115.1,144 120.3,136.5 		"/>
		<polygon class="st1" points="94.5,159 89.3,166.5 84.2,159 89.3,151.5 		"/>
		<polygon class="st1" points="104.8,159 99.6,166.5 94.5,159 99.6,151.5 		"/>
		<polygon class="st1" points="115.1,159 110,166.5 104.8,159 109.9,151.5 		"/>
		<polygon class="st1" points="125.4,159 120.3,166.5 115.1,159 120.3,151.5 		"/>
		<polygon class="st1" points="94.4,174 89.2,181.6 84.1,174 89.2,166.5 		"/>
		<polygon class="st1" points="104.7,174.1 99.5,181.6 94.4,174 99.5,166.5 		"/>
		<polygon class="st1" points="115,174.1 109.9,181.6 104.7,174.1 109.8,166.5 		"/>
		<polygon class="st1" points="125.3,174.1 120.2,181.6 115,174.1 120.2,166.5 		"/>
	</g>
	<g>
		<polygon class="st1" points="135.6,129 130.5,136.5 125.3,129 130.4,121.5 		"/>
		<polygon class="st1" points="145.9,129 140.8,136.5 135.6,129 140.8,121.5 		"/>
		<polygon class="st1" points="156.2,129 151.1,136.5 145.9,129 151.1,121.5 		"/>
		<polygon class="st1" points="166.5,129 161.4,136.5 156.2,129 161.4,121.5 		"/>
		<polygon class="st1" points="135.7,144 130.6,151.5 125.4,144 130.6,136.5 		"/>
		<polygon class="st1" points="146,144 140.9,151.5 135.7,144 140.9,136.5 		"/>
		<polygon class="st1" points="156.3,144 151.2,151.5 146,144 151.2,136.5 		"/>
		<polygon class="st1" points="166.6,144 161.5,151.5 156.3,144 161.5,136.5 		"/>
		<polygon class="st1" points="135.7,159 130.6,166.5 125.4,159 130.6,151.5 		"/>
		<polygon class="st1" points="146,159 140.9,166.5 135.7,159 140.9,151.5 		"/>
		<polygon class="st1" points="156.3,159 151.2,166.6 146,159 151.2,151.5 		"/>
		<polygon class="st1" points="166.6,159 161.5,166.6 156.3,159 161.5,151.5 		"/>
		<polygon class="st1" points="135.6,174.1 130.5,181.6 125.3,174 130.5,166.5 		"/>
		<polygon class="st1" points="145.9,174.1 140.8,181.6 135.6,174.1 140.8,166.5 		"/>
		<polygon class="st1" points="156.2,174.1 151.1,181.6 145.9,174.1 151.1,166.6 		"/>
		<polygon class="st1" points="166.5,174.1 161.4,181.6 156.2,174.1 161.4,166.6 		"/>
	</g>
	<g>
		<polygon class="st1" points="10.9,189.1 5.7,196.6 0.6,189 5.7,181.5 		"/>
		<polygon class="st1" points="21.2,189.1 16,196.6 10.9,189.1 16,181.5 		"/>
		<polygon class="st1" points="31.5,189.1 26.3,196.6 21.2,189.1 26.3,181.6 		"/>
		<polygon class="st1" points="41.8,189.1 36.6,196.6 31.5,189.1 36.6,181.6 		"/>
		<polygon class="st1" points="11,204.1 5.8,211.6 0.7,204.1 5.8,196.6 		"/>
		<polygon class="st1" points="21.3,204.1 16.1,211.6 11,204.1 16.1,196.6 		"/>
		<polygon class="st1" points="31.6,204.1 26.4,211.6 21.3,204.1 26.4,196.6 		"/>
		<polygon class="st1" points="41.9,204.1 36.7,211.6 31.6,204.1 36.7,196.6 		"/>
		<polygon class="st1" points="11,219.1 5.8,226.6 0.7,219.1 5.8,211.6 		"/>
		<polygon class="st1" points="21.3,219.1 16.1,226.6 11,219.1 16.1,211.6 		"/>
		<polygon class="st1" points="31.6,219.1 26.4,226.6 21.3,219.1 26.4,211.6 		"/>
		<polygon class="st1" points="41.9,219.1 36.8,226.6 31.6,219.1 36.7,211.6 		"/>
		<polygon class="st1" points="10.9,234.1 5.7,241.6 0.6,234.1 5.7,226.6 		"/>
		<polygon class="st1" points="21.2,234.1 16,241.6 10.9,234.1 16,226.6 		"/>
		<polygon class="st1" points="31.5,234.1 26.3,241.6 21.2,234.1 26.3,226.6 		"/>
		<polygon class="st1" points="41.8,234.1 36.6,241.6 31.5,234.1 36.6,226.6 		"/>
	</g>
	<g>
		<polygon class="st1" points="52.1,189.1 46.9,196.6 41.8,189.1 46.9,181.5 		"/>
		<polygon class="st1" points="62.4,189.1 57.3,196.6 52.1,189.1 57.2,181.6 		"/>
		<polygon class="st1" points="72.7,189.1 67.6,196.6 62.4,189.1 67.6,181.6 		"/>
		<polygon class="st1" points="83,189.1 77.9,196.6 72.7,189.1 77.9,181.6 		"/>
		<polygon class="st1" points="52.2,204.1 47.1,211.6 41.9,204.1 47.1,196.6 		"/>
		<polygon class="st1" points="62.5,204.1 57.4,211.6 52.2,204.1 57.4,196.6 		"/>
		<polygon class="st1" points="72.8,204.1 67.7,211.6 62.5,204.1 67.7,196.6 		"/>
		<polygon class="st1" points="83.1,204.1 78,211.6 72.8,204.1 78,196.6 		"/>
		<polygon class="st1" points="52.2,219.1 47.1,226.6 41.9,219.1 47.1,211.6 		"/>
		<polygon class="st1" points="62.5,219.1 57.4,226.6 52.2,219.1 57.4,211.6 		"/>
		<polygon class="st1" points="72.8,219.1 67.7,226.6 62.5,219.1 67.7,211.6 		"/>
		<polygon class="st1" points="83.1,219.1 78,226.6 72.8,219.1 78,211.6 		"/>
		<polygon class="st1" points="52.1,234.1 47,241.6 41.8,234.1 47,226.6 		"/>
		<polygon class="st1" points="62.4,234.1 57.3,241.6 52.1,234.1 57.3,226.6 		"/>
		<polygon class="st1" points="72.7,234.1 67.6,241.6 62.4,234.1 67.6,226.6 		"/>
		<polygon class="st1" points="83,234.1 77.9,241.6 72.7,234.1 77.9,226.6 		"/>
	</g>
	<g>
		<polygon class="st1" points="93.4,189.1 88.3,196.6 83.1,189.1 88.3,181.6 		"/>
		<polygon class="st1" points="103.8,189.1 98.6,196.6 93.4,189.1 98.6,181.6 		"/>
		<polygon class="st1" points="114.1,189.1 108.9,196.6 103.8,189.1 108.9,181.6 		"/>
		<polygon class="st1" points="124.4,189.1 119.2,196.6 114.1,189.1 119.2,181.6 		"/>
		<polygon class="st1" points="93.6,204.1 88.4,211.6 83.2,204.1 88.4,196.6 		"/>
		<polygon class="st1" points="103.9,204.1 98.7,211.6 93.6,204.1 98.7,196.6 		"/>
		<polygon class="st1" points="114.2,204.1 109,211.6 103.9,204.1 109,196.6 		"/>
		<polygon class="st1" points="124.5,204.1 119.3,211.6 114.2,204.1 119.3,196.6 		"/>
		<polygon class="st1" points="93.6,219.1 88.4,226.6 83.3,219.1 88.4,211.6 		"/>
		<polygon class="st1" points="103.9,219.1 98.7,226.6 93.6,219.1 98.7,211.6 		"/>
		<polygon class="st1" points="114.2,219.1 109,226.6 103.9,219.1 109,211.6 		"/>
		<polygon class="st1" points="124.5,219.1 119.3,226.6 114.2,219.1 119.3,211.6 		"/>
		<polygon class="st1" points="93.5,234.1 88.3,241.6 83.1,234.1 88.3,226.6 		"/>
		<polygon class="st1" points="103.8,234.1 98.6,241.6 93.5,234.1 98.6,226.6 		"/>
		<polygon class="st1" points="114.1,234.1 108.9,241.6 103.8,234.1 108.9,226.6 		"/>
		<polygon class="st1" points="124.4,234.1 119.2,241.6 114.1,234.1 119.2,226.6 		"/>
	</g>
	<g>
		<polygon class="st1" points="134.7,189.1 129.5,196.6 124.4,189.1 129.5,181.6 		"/>
		<polygon class="st1" points="145,189.1 139.8,196.6 134.7,189.1 139.8,181.6 		"/>
		<polygon class="st1" points="155.3,189.1 150.1,196.6 145,189.1 150.1,181.6 		"/>
		<polygon class="st1" points="165.6,189.1 160.4,196.6 155.3,189.1 160.4,181.6 		"/>
		<polygon class="st1" points="134.8,204.1 129.6,211.6 124.5,204.1 129.6,196.6 		"/>
		<polygon class="st1" points="145.1,204.1 139.9,211.6 134.8,204.1 139.9,196.6 		"/>
		<polygon class="st1" points="155.4,204.1 150.3,211.6 145.1,204.1 150.2,196.6 		"/>
		<polygon class="st1" points="165.7,204.1 160.6,211.6 155.4,204.1 160.6,196.6 		"/>
		<polygon class="st1" points="134.8,219.1 129.6,226.6 124.5,219.1 129.6,211.6 		"/>
		<polygon class="st1" points="145.1,219.1 139.9,226.6 134.8,219.1 139.9,211.6 		"/>
		<polygon class="st1" points="155.4,219.1 150.3,226.6 145.1,219.1 150.3,211.6 		"/>
		<polygon class="st1" points="165.7,219.1 160.6,226.6 155.4,219.1 160.6,211.6 		"/>
		<polygon class="st1" points="134.7,234.1 129.5,241.6 124.4,234.1 129.5,226.6 		"/>
		<polygon class="st1" points="145,234.1 139.8,241.6 134.7,234.1 139.8,226.6 		"/>
		<polygon class="st1" points="155.3,234.1 150.2,241.6 145,234.1 150.1,226.6 		"/>
		<polygon class="st1" points="165.6,234.1 160.5,241.6 155.3,234.1 160.5,226.6 		"/>
	</g>
</g>
</svg>
